<?xml version="1.0" encoding="UTF-8" standalone="no"?>
<!DOCTYPE svg PUBLIC "-//W3C//DTD SVG 1.1//EN" "http://www.w3.org/Graphics/SVG/1.1/DTD/svg11.dtd">
<svg width="100%" height="100%" viewBox="0 0 653 653" version="1.1" xmlns="http://www.w3.org/2000/svg" xmlns:xlink="http://www.w3.org/1999/xlink" xml:space="preserve" xmlns:serif="http://www.serif.com/" style="fill-rule:evenodd;clip-rule:evenodd;stroke-miterlimit:10;">
    <rect id="Mesa-de-trabajo1" serif:id="Mesa de trabajo1" x="0" y="0" width="652.28" height="652.28" style="fill:none;"/>
    <g id="Mesa-de-trabajo11" serif:id="Mesa de trabajo1">
        <g id="Capa_1">
            <path d="M326.14,0C146.02,0 0,146.02 0,326.14C0,506.26 146.02,652.28 326.14,652.28C506.26,652.28 652.28,506.26 652.28,326.14C652.28,146.02 506.26,0 326.14,0M326.14,648.86C147.91,648.86 3.42,504.37 3.42,326.14C3.42,147.91 147.91,3.42 326.14,3.42C504.37,3.42 648.86,147.9 648.86,326.14C648.86,504.38 504.38,648.86 326.14,648.86" style="fill:rgb(38,34,93);fill-rule:nonzero;"/>
            <path d="M189.72,546.66C192.02,547.95 194.02,549.07 196.35,550.38L196.35,571.65L197.12,571.86C200.07,566.62 203.02,561.38 206.11,555.88C208.17,557.02 210.06,558.07 212.15,559.23C206.94,568.54 201.87,577.62 196.84,586.6C196.38,586.57 196.17,586.62 196.03,586.53C194.27,585.53 191.9,584.91 190.94,583.4C190,581.91 190.42,579.52 190.39,577.52C190.31,573.07 190.33,568.63 190.29,564.18C190.29,563.27 190.19,562.35 190.14,561.44C189.94,561.38 189.73,561.32 189.53,561.26C186.48,566.67 183.44,572.08 180.25,577.76C178.27,576.65 176.45,575.64 174.25,574.41C179.3,565.14 184.46,556.14 189.7,546.66" style="fill:rgb(38,34,93);fill-rule:nonzero;"/>
            <path d="M352.94,616.54C350.48,616.8 348.32,617.02 345.75,617.28C344.66,606.78 343.6,596.55 342.5,586.01C343.56,585.81 344.56,585.55 345.57,585.43C349.31,585.01 353.06,584.63 356.8,584.27C357.66,584.19 358.54,584.2 359.4,584.17C363.28,584.01 366.16,585.68 367.84,589.14C369.55,592.66 369.22,596.06 366.71,599.17C366.53,599.39 366.38,599.64 366.11,600.03C368.78,602.09 369.22,605.08 369.59,608.19C369.83,610.22 370.6,612.18 371.21,614.48C368.9,614.98 366.43,615.4 363.49,615.29C363.06,613.18 362.62,611.14 362.22,609.08C362.04,608.14 361.96,607.17 361.76,606.23C361.43,604.67 360.34,603.92 358.83,603.99C356.64,604.09 354.45,604.35 351.93,604.58C352.27,608.6 352.57,612.32 352.93,616.54M350.48,591.55C350.75,593.95 351,596.11 351.28,598.54C354.13,598.18 356.72,597.99 359.25,597.48C361.09,597.11 361.7,595.93 361.55,594.02C361.4,592.1 360.57,590.83 358.89,590.75C356.13,590.61 353.36,590.85 350.47,591.56" style="fill:rgb(38,34,93);fill-rule:nonzero;"/>
            <path d="M413.01,582.57C410.72,583.23 408.69,583.81 406.72,584.37C406.47,584.23 406.26,584.18 406.15,584.04C403.76,580.83 400.42,580.33 397.12,582.71C396.02,583.5 395.31,584.47 395.63,585.9C395.98,587.46 397.22,587.72 398.53,587.72C401.14,587.71 403.75,587.64 406.36,587.6C407.23,587.59 408.11,587.57 408.97,587.61C415.79,587.91 419.68,594.51 416.7,600.72C413.53,607.33 401.61,610.44 395.65,606.2C393.68,604.8 392.44,602.91 391.85,600.15C394.02,599.52 396.18,598.9 398.25,598.3C401.32,602.17 404.01,602.72 408.17,600.49C409.99,599.51 410.77,598.33 410.54,596.9C410.3,595.39 409.32,594.65 407.04,594.56C405.41,594.49 403.76,594.74 402.12,594.73C399.71,594.7 397.3,594.67 394.91,594.42C393,594.22 391.54,593.07 390.42,591.5C387.52,587.41 388.13,581.54 392,578.39C395.88,575.24 400.43,574.1 405.35,575.04C409.29,575.8 411.79,578.3 413.01,582.57" style="fill:rgb(38,34,93);fill-rule:nonzero;"/>
            <path d="M299.17,584.6C307.14,585.12 314.64,585.61 322.3,586.12C322.69,588.35 322.49,590.37 321.94,592.54C316.66,592.21 311.57,591.89 306.14,591.55C305.97,593.29 305.81,594.85 305.61,596.84C310.57,597.24 315.32,597.62 320.1,598L320.1,604.18C315.09,603.89 310.33,603.62 305.29,603.33C305.13,605.63 304.98,607.7 304.81,610.08C310.47,610.51 315.9,610.92 321.32,611.32L321.32,617.7C313.21,617.4 305.39,616.67 297.11,616.19C297.8,605.64 298.47,595.3 299.17,584.59" style="fill:rgb(38,34,93);fill-rule:nonzero;"/>
            <path d="M173.24,535.55C168.49,541.31 164.16,546.88 159.48,552.14C155.06,557.11 149.94,557.6 144.48,553.81C142.6,552.51 140.85,550.89 139.42,549.11C136.7,545.71 136.37,541.9 138.5,538.02C139.1,536.93 139.77,535.84 140.55,534.87C144.36,530.13 148.22,525.43 152.05,520.7C152.41,520.25 152.61,519.67 152.94,519.04C155.29,520.94 157.07,522.38 159.01,523.95C158.43,524.76 157.99,525.46 157.46,526.11C154.24,530.09 150.99,534.05 147.76,538.01C147.15,538.76 146.53,539.51 145.99,540.3C143.62,543.82 144.91,547.44 148.97,548.71C150.37,549.15 151.69,548.95 152.78,547.99C153.79,547.1 154.73,546.12 155.59,545.08C159.46,540.4 163.29,535.68 167.33,530.74C169.28,532.33 171.11,533.82 173.23,535.55" style="fill:rgb(38,34,93);fill-rule:nonzero;"/>
            <path d="M263.79,610.54C261.45,610 259.39,609.53 257.16,609.02C256.13,598.03 255.1,587.19 254.05,576.06C256.76,576.02 258.97,576.95 261.65,577.51C262.03,584.64 262.41,591.81 262.79,598.98C262.99,599.04 263.19,599.11 263.4,599.17C266.89,593.01 270.38,586.84 274,580.47C276.4,581.01 278.72,581.54 281.54,582.18C275.63,591.8 269.72,601.02 263.79,610.55" style="fill:rgb(38,34,93);fill-rule:nonzero;"/>
            <path d="M504.98,533.04C503.72,528.47 502.58,524.32 501.38,519.93C503.33,518.28 505.29,516.61 507.5,514.73C507.83,515.62 508.12,516.18 508.25,516.78C509.57,522.72 510.81,528.67 512.19,534.59C512.46,535.75 513.06,536.94 513.8,537.88C515.76,540.38 517.88,542.76 520.15,545.44C518.33,547.03 516.63,548.52 514.66,550.24C513.82,549.31 512.95,548.57 512.34,547.65C509.12,542.75 504.59,539.87 498.99,538.22C494.66,536.94 490.49,535.08 485.91,533.34C487.78,531.23 489.84,529.69 491.86,528.16C492.28,527.84 493.33,528.1 493.97,528.37C496.82,529.56 499.62,530.87 502.45,532.11C503.12,532.41 503.83,532.62 504.99,533.04" style="fill:rgb(38,34,93);fill-rule:nonzero;"/>
            <path d="M462.58,555.95C459.78,557.6 457.39,559.01 454.74,560.58C453.6,558.75 452.56,557.08 451.36,555.15C458.76,550.68 465.99,546.32 473.47,541.8C474.62,543.68 475.65,545.38 476.81,547.27C474.16,548.9 471.72,550.4 468.97,552.1C473.32,559.33 477.56,566.4 481.97,573.74C479.84,575.04 477.92,576.21 475.71,577.56C471.29,570.27 467.01,563.23 462.59,555.95" style="fill:rgb(38,34,93);fill-rule:nonzero;"/>
            <path d="M435.2,562.75C439.5,572.62 443.66,582.15 447.9,591.9C445.61,592.91 443.52,593.83 441.11,594.89C436.87,585.17 432.72,575.64 428.43,565.82C430.66,564.81 432.73,563.87 435.2,562.75" style="fill:rgb(38,34,93);fill-rule:nonzero;"/>
            <path d="M230.3,567.05C232.72,568 234.76,568.79 237.18,569.73C233.36,579.61 229.61,589.34 225.77,599.29C223.38,598.38 221.26,597.57 218.87,596.66C222.7,586.75 226.43,577.08 230.31,567.06" style="fill:rgb(38,34,93);fill-rule:nonzero;"/>
            <path d="M122.73,139.64C128.29,138.72 132.54,141.3 133.8,146.55C134.37,148.89 134.16,151.23 132.8,153.24C131.4,155.31 129.81,157.27 128.22,159.2C125.98,161.92 123.65,164.57 121.36,167.25C121.3,167.32 121.2,167.36 120.94,167.54C113,160.76 105.02,153.94 96.94,147.04C99.99,143.47 102.93,139.97 105.95,136.53C107.09,135.23 108.28,133.92 109.66,132.9C113.77,129.88 119.3,131.17 121.67,135.69C122.27,136.84 122.37,138.24 122.73,139.64M115.27,153.49C117.26,155.19 119.05,156.71 120.96,158.34C122.85,156.06 124.74,153.94 126.43,151.68C127.73,149.94 127.33,148.13 125.63,146.71C124.09,145.43 122.57,145.42 121.01,147.02C119.04,149.05 117.24,151.25 115.26,153.49M110.85,149.72C112.77,147.29 114.71,145.03 116.41,142.6C117.33,141.27 116.91,140.07 115.64,139.06C114.43,138.09 113.29,137.97 112.14,139.11C110.07,141.17 108.16,143.4 106.1,145.65C107.75,147.07 109.2,148.31 110.85,149.74" style="fill:rgb(38,34,93);fill-rule:nonzero;"/>
            <path d="M603.31,361.21C603.49,358.76 603.66,356.51 603.83,354.29C607.85,352.96 609.45,350.95 609.55,347.2C609.63,344.04 607.55,341.09 604.18,339.85C600.89,338.64 597.47,338.35 594.06,339.22C590.65,340.08 588.48,343.38 588.57,347.17C588.65,350.45 590.69,353.05 593.97,353.86C594.16,351.64 594.35,349.45 594.56,347.01C596.48,347.14 598.37,347.26 600.41,347.4C600.25,349.72 600.11,351.96 599.95,354.2C599.78,356.41 599.59,358.61 599.4,361C593.6,360.57 587.94,360.14 582.18,359.71C582.25,358.44 582.36,357.25 582.35,356.06C582.35,354.93 582.84,354.5 583.93,354.57C584.43,354.6 584.95,354.47 585.53,354.41C585.44,354.13 585.43,353.98 585.36,353.88C578.98,345.41 583.53,333.73 594.01,331.73C597.93,330.99 601.82,331.29 605.59,332.61C612.65,335.08 616.5,341.61 615.49,349.04C614.87,353.59 613.1,357.37 608.99,359.76C607.3,360.75 605.47,361.27 603.31,361.2" style="fill:rgb(38,34,93);fill-rule:nonzero;"/>
            <path d="M214.79,57.73C216.89,56.8 218.86,55.93 221.01,54.98C225.26,64.66 229.48,74.27 233.79,84.06C231.74,84.96 229.76,85.9 227.71,86.68C227.33,86.82 226.64,86.41 226.21,86.09C220.78,82.07 215.36,78.02 209.94,73.97C209.56,73.69 209.16,73.42 208.48,73.31C211.12,79.36 213.77,85.4 216.5,91.63C214.46,92.54 212.46,93.43 210.29,94.39C206.03,84.7 201.81,75.09 197.51,65.32C199.66,64.37 201.74,63.39 203.88,62.55C204.22,62.42 204.86,62.79 205.25,63.08C210.55,67.03 215.84,71.02 221.13,74.99C221.53,75.29 221.94,75.57 222.62,75.63C220.02,69.7 217.43,63.77 214.79,57.73" style="fill:rgb(38,34,93);fill-rule:nonzero;"/>
            <path d="M563.1,222.84C562.09,220.81 561.1,218.94 560.25,217C560.08,216.62 560.36,215.91 560.64,215.5C564.43,209.78 568.26,204.09 572.08,198.39C572.37,197.95 572.65,197.5 572.76,196.79C566.75,199.76 560.74,202.74 554.62,205.78C553.62,203.77 552.65,201.84 551.6,199.72C561.09,195 570.49,190.33 580.09,185.56C581.15,187.69 582.21,189.73 583.15,191.82C583.3,192.14 582.94,192.79 582.68,193.19C578.97,198.73 575.24,204.25 571.51,209.78C571.22,210.21 570.95,210.66 570.86,211.38C576.7,208.49 582.55,205.6 588.56,202.62C589.56,204.62 590.53,206.58 591.58,208.68C582.1,213.39 572.7,218.07 563.11,222.83" style="fill:rgb(38,34,93);fill-rule:nonzero;"/>
            <path d="M393.47,43.49C395.74,44.13 397.88,44.69 399.98,45.38C400.35,45.5 400.67,46.13 400.78,46.58C402.4,53.09 403.98,59.61 405.57,66.12C405.7,66.67 405.85,67.21 406.34,67.8C408.15,61.5 409.97,55.21 411.83,48.75C414.01,49.37 416.12,49.98 418.3,50.6C415.38,60.81 412.49,70.9 409.55,81.14C407.42,80.54 405.36,80.03 403.37,79.34C402.95,79.19 402.61,78.42 402.47,77.88C400.75,71.05 399.08,64.21 397.39,57.37C397.3,57.02 397.17,56.68 396.93,55.92C394.96,62.76 393.1,69.23 391.19,75.87C389.03,75.26 386.97,74.68 384.71,74.04C387.63,63.84 390.53,53.72 393.46,43.49" style="fill:rgb(38,34,93);fill-rule:nonzero;"/>
            <path d="M38.6,282.69C39.43,278.36 40.22,274.15 41.07,269.96C41.42,268.22 41.78,266.45 42.38,264.78C43.7,261.12 46.62,259.45 50.31,259.26C54.05,259.07 57.79,261.38 58.64,264.17C58.69,264.34 58.85,264.48 59.03,264.71C61.07,262.35 63.71,262.67 66.32,263.02C67.85,263.22 69.36,263.6 70.88,263.76C71.5,263.82 72.17,263.52 72.81,263.38C73.35,263.27 73.89,263.15 74.7,262.98C74.19,265.66 73.79,267.99 73.27,270.28C73.2,270.58 72.45,270.94 72.04,270.91C70.02,270.77 68.01,270.52 66,270.29C65.76,270.26 65.53,270.17 65.29,270.14C61.91,269.63 60.96,270.29 60.27,273.65C59.9,275.45 59.58,277.25 59.23,279.05C59.23,279.09 59.24,279.15 59.28,279.38C63.12,280.14 67.03,280.9 71.09,281.7C70.64,284.05 70.2,286.3 69.75,288.68C59.34,286.67 49.04,284.68 38.61,282.66M53.43,278.3C53.91,275.4 54.48,272.67 54.77,269.9C54.96,268.1 53.87,267.07 51.93,266.68C49.8,266.25 48.26,266.78 47.76,268.53C46.99,271.19 46.51,273.94 45.87,276.81C48.44,277.32 50.79,277.78 53.43,278.3" style="fill:rgb(38,34,93);fill-rule:nonzero;"/>
            <path d="M584.71,254.76C576.17,254.78 570.88,250.12 569.26,242.1C568.05,236.13 570.17,230.74 575.28,227.42C580.08,224.31 585.32,222.66 591.09,223.77C594.86,224.49 597.88,226.51 599.84,229.89C601.77,233.22 602.9,236.79 602.56,240.67C602.2,244.8 600.15,248.07 596.8,250.46C592.89,253.25 588.46,254.61 584.72,254.78M584.32,247.59C587.39,247.25 590.97,246.26 593.83,243.52C595.87,241.56 596.59,239.15 595.82,236.39C595.05,233.58 593.37,231.56 590.44,230.92C586.1,229.97 582.22,231.34 578.73,233.81C575.63,236.01 574.72,239.23 575.92,242.61C577.08,245.89 579.83,247.69 584.32,247.6" style="fill:rgb(38,34,93);fill-rule:nonzero;"/>
            <path d="M81.8,240.43C71.84,236.38 62.16,232.44 52.39,228.47C52.52,228.04 52.59,227.68 52.73,227.34C54.25,223.59 55.75,219.82 57.31,216.09C60.27,208.94 65.24,206.36 72.8,208.07C77.73,209.19 82.03,211.44 85.29,215.41C87.75,218.41 88.73,221.92 87.52,225.58C85.88,230.55 83.78,235.37 81.81,240.44M78.64,231.52C79.34,229.83 80,228.29 80.61,226.73C81.89,223.48 81.33,221.09 78.65,218.85C75.79,216.46 72.43,215.21 68.77,214.74C67.12,214.53 65.37,214.82 64.49,216.28C63,218.76 61.84,221.43 60.49,224.13C66.73,226.67 72.57,229.05 78.64,231.52" style="fill:rgb(38,34,93);fill-rule:nonzero;"/>
            <path d="M68.52,310.42C68.75,321.17 61.03,325.73 53.32,325.85C50.1,325.9 46.93,325.66 43.94,324.41C38.51,322.13 35.37,318.16 35.08,312.14C34.82,306.59 36.04,301.68 40.87,298.24C47.24,293.71 59.22,294.73 64.74,300.25C67.61,303.12 68.63,306.6 68.52,310.42M52.47,319.02C54.36,318.53 56.37,318.31 58.12,317.51C63.11,315.23 63.87,308.53 59.67,305.01C56.16,302.06 48.08,301.73 44.33,304.37C40.6,307 40.14,312.57 43.42,315.77C45.92,318.21 49.12,318.6 52.48,319.02" style="fill:rgb(38,34,93);fill-rule:nonzero;"/>
            <path d="M616,308.06C616.07,315.06 612.3,320.16 605.56,322.12C601.64,323.26 597.66,323.43 593.67,322.59C587.62,321.31 583.79,317.08 582.7,310.61C581.31,302.28 585.52,295.52 593.45,293.43C596.8,292.55 600.22,292.34 603.65,292.86C606.27,293.26 608.68,294.19 610.76,295.9C614.39,298.88 615.94,302.46 616,308.07M599.02,316.17C600.87,315.68 603.34,315.32 605.55,314.38C608.53,313.11 609.96,310.56 609.75,307.27C609.54,303.95 607.83,301.63 604.69,300.54C600.72,299.16 596.77,299.51 593,301.25C590.05,302.61 588.46,305.54 588.74,308.53C589.07,312.04 590.93,314.4 594.27,315.35C595.6,315.73 597.01,315.84 599.01,316.18" style="fill:rgb(38,34,93);fill-rule:nonzero;"/>
            <path d="M430.39,54.87C435.41,57.16 440.42,59.19 445.19,61.7C449.78,64.11 451.31,68.43 450.72,73.37C450.1,78.65 447.87,83.28 444.03,87.02C440.19,90.77 435.67,91.71 430.7,89.72C426.54,88.06 422.47,86.16 418.36,84.37C418.15,84.27 417.96,84.12 417.66,83.93C421.88,74.28 426.1,64.66 430.38,54.88M426.56,81.17C428.23,81.91 429.8,82.62 431.38,83.3C434.6,84.68 437.08,84.14 439.42,81.49C441.68,78.93 442.97,75.88 443.58,72.56C443.96,70.49 443.86,68.34 441.84,67.13C439.48,65.71 436.94,64.59 434.38,63.29C431.7,69.41 429.16,75.22 426.55,81.17" style="fill:rgb(38,34,93);fill-rule:nonzero;"/>
            <path d="M509.1,109.15C507.77,110.67 506.57,112.04 505.27,113.53C509.06,116.85 512.79,120.1 516.58,123.41C515.18,125.01 513.89,126.49 512.52,128.06C508.73,124.77 505.03,121.55 501.2,118.21C499.64,120 498.14,121.73 496.55,123.54C500.9,127.34 505.14,131.04 509.44,134.8C508.02,136.42 506.66,137.98 505.25,139.6C499.14,134.28 493.1,129.02 486.96,123.66C493.95,115.64 500.85,107.72 507.84,99.7C513.76,104.85 519.58,109.92 525.56,115.13C524.19,116.72 522.85,118.26 521.46,119.88C517.33,116.29 513.29,112.78 509.11,109.14" style="fill:rgb(38,34,93);fill-rule:nonzero;"/>
            <path d="M256.13,44.11C256.74,46.18 257.29,48.07 257.88,50.07C252.65,51.61 247.49,53.13 242.2,54.68C242.74,56.53 243.24,58.28 243.81,60.21C248.6,58.82 253.31,57.45 258.21,56.03C258.79,57.96 259.35,59.87 259.96,61.9C255.16,63.31 250.45,64.7 245.56,66.13C246.23,68.43 246.86,70.63 247.54,72.98C253.02,71.38 258.38,69.82 263.94,68.2C264.54,70.17 265.12,72.13 265.78,74.29C258.02,76.56 250.33,78.81 242.48,81.11C239.5,70.9 236.57,60.88 233.59,50.7C241.11,48.5 248.54,46.32 256.14,44.1" style="fill:rgb(38,34,93);fill-rule:nonzero;"/>
            <path d="M177.1,88.35C176.77,88.62 176.56,88.82 176.33,88.98C174.74,90.07 173.15,91.16 171.58,92.23C168.1,89.43 163.5,90.46 161.44,94.45C160.85,95.59 160.86,96.67 161.66,97.7C162.42,98.68 163.46,98.81 164.53,98.43C167.35,97.43 170.1,96.24 172.96,95.38C175,94.77 177.22,94.09 179.28,94.28C184.1,94.73 187.47,100.18 186.42,105.23C185,112.09 175.42,118.22 168.62,116.62C166.25,116.06 164.06,114.37 162.82,112.1C164.63,110.85 166.46,109.59 168.12,108.44C169.35,109.12 170.39,110.03 171.58,110.29C174.31,110.88 179.14,107.61 179.92,104.89C180.55,102.69 178.83,100.78 176.61,101.4C174.43,102 172.34,102.92 170.21,103.68C168.62,104.25 167.05,104.91 165.42,105.31C160.23,106.59 155.59,103.46 154.64,98.17C154.19,95.68 154.52,93.29 155.96,91.24C159.19,86.65 163.46,83.78 169.29,83.84C172.66,83.87 175.11,85.57 177.1,88.36" style="fill:rgb(38,34,93);fill-rule:nonzero;"/>
            <path d="M303,58.02C304.41,57.95 305.76,57.86 307.1,57.81C307.91,57.78 308.73,57.81 309.6,57.81C309.68,58.02 309.76,58.19 309.8,58.36C310.56,61.27 311.58,62.33 314.6,62.46C316.47,62.54 318.41,62.17 320.25,61.71C321.56,61.38 322.23,60.19 322.22,58.8C322.21,57.37 321.27,56.58 320.01,56.28C317.06,55.57 314.08,54.96 311.12,54.31C310.6,54.2 310.09,54.07 309.57,53.94C306.13,53.03 303.66,51.11 303.04,47.4C302.4,43.57 303.39,40.3 306.47,37.82C310.91,34.25 319.92,34.42 324.27,38.12C326.5,40.03 327.53,42.49 327.62,45.64C325.51,45.72 323.41,45.82 321.32,45.83C321.08,45.83 320.71,45.3 320.64,44.96C320.24,43.21 319.15,42.18 317.46,41.75C315.49,41.24 313.54,41.27 311.65,42.07C310.34,42.63 309.49,43.58 309.57,45.07C309.65,46.5 310.67,47.17 311.93,47.45C314.99,48.14 318.06,48.74 321.12,49.43C324.33,50.15 327.22,51.35 328.54,54.74C330.38,59.48 328.33,64.86 323.55,67.06C318.67,69.3 313.6,69.34 308.65,67.28C304.81,65.68 302.63,61.98 302.99,58.03" style="fill:rgb(38,34,93);fill-rule:nonzero;"/>
            <path d="M292.98,47.64C290.71,48.02 288.54,48.37 286.38,48.73C284.35,44.78 280.68,43.71 276.77,45.89C275.35,46.68 274.69,47.86 274.9,49.17C275.16,50.78 276.35,51.26 277.71,51.4C280.97,51.73 284.25,51.98 287.52,52.27C291.8,52.65 294.49,54.59 295.56,58.03C296.79,62.01 295.73,66.21 292.44,68.6C287.33,72.32 281.6,73.09 275.67,70.96C272.11,69.68 270.28,66.79 269.79,62.9C272.07,62.53 274.24,62.18 276.48,61.81C276.68,62.27 276.81,62.67 277.02,63.04C277.32,63.58 277.6,64.18 278.02,64.62C280.14,66.88 287.22,65.97 288.78,63.26C289.74,61.58 289.02,59.54 287.07,59.21C284.32,58.74 281.51,58.61 278.73,58.33C277.63,58.22 276.52,58.13 275.42,57.95C271.9,57.38 269.5,55.53 268.58,51.96C267.56,47.99 268.44,44.56 271.56,41.87C275.76,38.25 283.57,37.59 288.37,40.35C290.83,41.77 292.35,44.1 292.98,47.63" style="fill:rgb(38,34,93);fill-rule:nonzero;"/>
            <path d="M559.43,175.25C562.71,173.04 565.87,170.92 569.2,168.67C570.54,170.63 571.86,172.56 573.25,174.59C564.5,180.5 555.78,186.38 546.98,192.33C545.64,190.35 544.35,188.44 542.97,186.39C546.78,183.8 550.51,181.27 554.33,178.68C552.21,175.53 550.16,172.5 548.04,169.36C544.2,171.94 540.46,174.46 536.64,177.02C535.29,175.03 534,173.12 532.62,171.08C541.39,165.16 550.09,159.29 558.87,153.36C560.25,155.4 561.54,157.3 562.89,159.3C559.62,161.52 556.43,163.68 553.12,165.92C555.24,169.06 557.3,172.12 559.42,175.26" style="fill:rgb(38,34,93);fill-rule:nonzero;"/>
            <path d="M122.69,118.47C124.49,116.85 126.24,115.28 128.29,113.42C128.62,113.9 128.87,114.38 129.22,114.76C133.11,119.12 137.02,123.46 140.93,127.81C141.25,128.17 141.58,128.52 141.93,128.86C145.3,132.18 149.37,131.44 151.43,127.14C152.15,125.63 151.88,124.17 150.94,122.9C149.76,121.32 148.48,119.8 147.17,118.32C143.61,114.31 140.02,110.34 136.33,106.23C138.15,104.59 139.93,103 141.77,101.33C144.99,104.91 148.17,108.42 151.31,111.95C152.98,113.82 154.71,115.65 156.24,117.64C160.23,122.83 159.91,128.08 155.24,132.7C153.68,134.25 151.92,135.68 150.02,136.77C146.04,139.03 142.07,138.64 138.59,135.66C136.58,133.94 134.82,131.93 133.03,129.98C129.58,126.2 126.19,122.38 122.7,118.48" style="fill:rgb(38,34,93);fill-rule:nonzero;"/>
            <path d="M378.52,72.6C376.12,72.26 373.79,71.97 371.48,71.56C371.2,71.51 370.9,70.87 370.82,70.45C370.51,68.94 370.34,67.4 369.99,65.9C369.89,65.47 369.38,64.88 368.99,64.81C366.04,64.31 363.06,63.96 360.11,63.48C359.3,63.35 358.99,63.69 358.69,64.32C358.01,65.76 357.29,67.18 356.55,68.59C356.39,68.88 356.02,69.3 355.79,69.27C353.45,68.98 351.13,68.6 348.63,68.23C350.39,64.9 352.05,61.76 353.72,58.61C357.09,52.26 360.48,45.91 363.82,39.55C364.24,38.75 364.67,38.43 365.61,38.61C367.55,38.97 369.53,39.17 371.47,39.53C371.82,39.59 372.32,40.03 372.39,40.37C374.48,50.87 376.53,61.38 378.57,71.9C378.6,72.07 378.55,72.26 378.53,72.62M368.83,58.56C368.23,54.95 367.66,51.59 367.09,48.24C366.97,48.24 366.86,48.24 366.74,48.23C365.22,51.27 363.71,54.31 362.08,57.56C364.38,57.9 366.45,58.21 368.82,58.56" style="fill:rgb(38,34,93);fill-rule:nonzero;"/>
            <path d="M109.05,184.64C107.89,186.67 106.8,188.67 105.6,190.58C105.39,190.92 104.65,191.13 104.2,191.07C102.73,190.85 101.27,190.5 99.82,190.14C99.05,189.95 98.59,190.09 98.18,190.84C96.77,193.42 95.25,195.95 93.85,198.54C93.65,198.9 93.74,199.66 94,199.99C95.02,201.27 96.2,202.43 97.25,203.69C97.48,203.97 97.6,204.6 97.44,204.9C96.4,206.85 95.27,208.76 94.09,210.84C93.68,210.4 93.35,210.08 93.04,209.73C86.34,201.92 79.65,194.1 72.91,186.31C72.27,185.58 72.11,185.05 72.66,184.19C73.67,182.61 74.51,180.91 75.52,179.32C75.76,178.95 76.44,178.58 76.84,178.65C87.34,180.52 97.83,182.44 108.32,184.36C108.54,184.4 108.75,184.53 109.05,184.65M82.13,186.39C82.08,186.49 82.03,186.58 81.98,186.68C84.28,189.23 86.59,191.79 89.02,194.5C90.17,192.48 91.23,190.63 92.4,188.58C88.84,187.82 85.48,187.11 82.13,186.39" style="fill:rgb(38,34,93);fill-rule:nonzero;"/>
            <path d="M536.54,157.11C531.6,161.27 523.76,160.65 519.2,155.86C513.78,150.17 513.33,143.14 518.2,136.98C521.73,132.52 526.03,129.01 531.99,128.52C533.81,128.37 535.79,128.62 537.52,129.19C545.52,131.83 549.53,141.49 545.63,148.5C545.13,149.4 544.41,150.18 543.69,151.15C542.11,149.38 540.64,147.85 539.33,146.19C539.08,145.87 539.33,144.97 539.59,144.46C541.54,140.58 539.06,135.84 534.72,135.36C533.79,135.26 532.75,135.35 531.87,135.66C527.71,137.14 524.47,139.82 522.43,143.76C521.02,146.47 521.52,149.14 523.54,151.24C525.49,153.27 527.76,153.65 530.69,152.3C531.54,151.91 532.03,151.94 532.63,152.69C533.85,154.18 535.18,155.59 536.53,157.1" style="fill:rgb(38,34,93);fill-rule:nonzero;"/>
            <path d="M44.8,366.76C45.72,371.6 46.65,376.23 47.47,380.88C47.64,381.87 48.02,382.06 48.9,381.87C50.5,381.52 52.1,381.23 53.88,380.88C53.05,376.41 52.23,372.02 51.38,367.48C53.35,367.11 55.26,366.75 57.33,366.35C58.19,370.82 59.02,375.16 59.9,379.72C64.16,378.93 68.34,378.16 72.65,377.36C73.1,379.72 73.53,381.94 74.01,384.39C63.69,386.35 53.44,388.3 42.94,390.3C41.53,382.87 40.13,375.51 38.69,367.95C40.72,367.55 42.69,367.16 44.81,366.75" style="fill:rgb(38,34,93);fill-rule:nonzero;"/>
            <path d="M606.5,399.98C602.57,396.68 598.55,393.82 595.18,390.35C590.96,386.01 585.79,384.41 580.14,383.57C579.34,383.45 578.55,383.23 577.64,383.03C578.14,380.68 578.61,378.43 579.12,376C581.8,376.55 584.42,376.94 586.95,377.65C589.51,378.37 591.88,378.22 594.41,377.37C599.99,375.51 605.65,373.89 611.28,372.18C611.59,372.08 611.92,372.02 612.43,371.9C611.89,374.52 611.42,377.01 610.81,379.46C610.71,379.85 610.04,380.25 609.57,380.37C605.47,381.41 601.34,382.39 596.88,383.47C597.51,383.98 597.92,384.33 598.35,384.65C601.34,386.86 604.36,389.03 607.32,391.29C607.72,391.59 608.09,392.33 608.01,392.79C607.61,395.11 607.06,397.4 606.51,399.97" style="fill:rgb(38,34,93);fill-rule:nonzero;"/>
            <path d="M474.72,83.95C475.91,82.21 477.02,80.58 478.23,78.8C485.36,83.65 492.4,88.45 499.55,93.32C498.37,95.05 497.24,96.71 496.05,98.47C493.48,96.73 491.01,95.06 488.36,93.26C483.58,100.26 478.85,107.21 474.03,114.27C472.04,112.92 470.14,111.63 468.08,110.23C472.85,103.21 477.59,96.25 482.39,89.19C479.83,87.44 477.37,85.76 474.72,83.95" style="fill:rgb(38,34,93);fill-rule:nonzero;"/>
            <path d="M587.59,287C585.48,287.41 583.6,287.78 581.49,288.2C580.03,280.77 578.59,273.41 577.11,265.9C587.49,263.87 597.79,261.85 608.25,259.81C608.72,262.17 609.17,264.42 609.65,266.87C601.33,268.51 593.12,270.12 584.66,271.78C585.63,276.83 586.59,281.82 587.59,287" style="fill:rgb(38,34,93);fill-rule:nonzero;"/>
            <path d="M62,348.45C61.63,343.24 61.27,338.2 60.9,332.98C63,332.82 64.99,332.66 67.16,332.5C67.71,340.06 68.26,347.5 68.82,355.16C58.24,355.94 47.81,356.7 37.2,357.48C37.02,355.26 36.81,353.11 36.7,350.96C36.69,350.74 37.22,350.3 37.52,350.28C44.26,349.76 51.01,349.28 57.75,348.79C59.09,348.69 60.43,348.58 62,348.45" style="fill:rgb(38,34,93);fill-rule:nonzero;"/>
            <path d="M79.16,248.74C78.45,251.1 77.79,253.31 77.09,255.65C66.92,252.63 56.86,249.64 46.63,246.6C47.31,244.27 47.97,242.04 48.67,239.68C58.86,242.7 68.93,245.69 79.16,248.73" style="fill:rgb(38,34,93);fill-rule:nonzero;"/>
            <path d="M180.93,74.42C183.02,73.25 185.02,72.12 187.2,70.9C192.4,80.16 197.55,89.35 202.77,98.63C200.67,99.81 198.66,100.95 196.5,102.16C191.32,92.93 186.16,83.74 180.93,74.42" style="fill:rgb(38,34,93);fill-rule:nonzero;"/>
            <path d="M326.36,640.06C154.08,640.4 12.52,500.27 12.59,326.06C12.64,152.98 153.69,10.55 329.99,12.46C502.62,14.32 641.49,155.35 640.27,328.54C639.04,502.08 497.57,640.49 326.36,640.06M631.56,326.36C631.76,158.6 496.16,23.2 330.33,21.12C161.49,19 21.54,155.14 21.26,325.78C20.98,493.55 155.97,629.64 322.97,631.44C494.42,633.29 631.8,494.53 631.56,326.36" style="fill:rgb(38,34,93);fill-rule:nonzero;"/>
            <path d="M326.52,570.33C190.42,570.34 81.07,459.25 82.4,323.82C83.72,189.95 193.16,81.59 327.66,82.24C461.66,82.88 570.65,191.98 570.46,326.56C570.27,461.17 461.14,570.32 326.51,570.32M561.72,326.29C561.53,195.99 456.33,91.82 327.95,91.02C198.68,90.21 92.35,194 91.18,324.11C90,455.11 195.52,561.29 325.91,561.53C456.21,561.77 561.72,456.32 561.71,326.29" style="fill:rgb(38,34,93);fill-rule:nonzero;"/>
            <path d="M88.04,475.87C83.47,479.55 78.92,483.21 74.3,486.92C74.34,486.76 74.34,486.66 74.36,486.57C75.5,482.72 76.65,478.89 77.79,475.02C78.36,473.18 78.9,471.31 79.47,469.48C79.58,469.16 79.51,468.95 79.22,468.75C77.1,467.06 74.99,465.35 72.9,463.65C70.8,461.96 68.7,460.26 66.59,458.57C66.43,458.43 66.25,458.28 66.02,458.09L82.5,458.09C84.34,452.34 86.16,446.59 88.02,440.76C88.16,441.19 88.27,441.49 88.37,441.81C89.27,444.64 90.18,447.47 91.06,450.28C91.83,452.73 92.64,455.21 93.42,457.71C93.52,458.02 93.66,458.08 93.95,458.08L110.04,458.08C109.47,458.54 108.96,458.97 108.47,459.36C106.65,460.85 104.84,462.3 103.04,463.78C100.96,465.48 98.87,467.14 96.78,468.84C96.53,469.03 96.49,469.19 96.58,469.5C97.33,471.97 98.08,474.44 98.81,476.93C99.67,479.81 100.53,482.69 101.4,485.58C101.52,486 101.64,486.42 101.71,486.9C97.17,483.23 92.62,479.59 88.04,475.88" style="fill:rgb(192,32,38);"/>
            <path d="M561.95,475.87C557.38,479.55 552.83,483.21 548.21,486.92C548.25,486.76 548.25,486.66 548.27,486.57C549.41,482.72 550.56,478.89 551.7,475.02C552.27,473.18 552.81,471.31 553.38,469.48C553.49,469.16 553.42,468.95 553.13,468.75C551.01,467.06 548.9,465.35 546.81,463.65C544.71,461.96 542.61,460.26 540.5,458.57C540.34,458.43 540.16,458.28 539.93,458.09L556.41,458.09C558.25,452.34 560.07,446.59 561.93,440.76C562.07,441.19 562.18,441.49 562.27,441.81C563.17,444.64 564.08,447.47 564.96,450.28C565.73,452.73 566.55,455.21 567.32,457.71C567.42,458.02 567.55,458.08 567.85,458.08L583.94,458.08C583.37,458.54 582.86,458.97 582.37,459.36C580.55,460.85 578.74,462.3 576.94,463.78C574.86,465.48 572.77,467.14 570.68,468.84C570.43,469.03 570.39,469.19 570.48,469.5C571.23,471.97 571.98,474.44 572.71,476.93C573.57,479.81 574.43,482.69 575.3,485.58C575.42,486 575.54,486.42 575.61,486.9C571.07,483.23 566.52,479.59 561.95,475.88" style="fill:rgb(192,32,38);"/>
            <g>
                <g transform="matrix(-0,1,-1,-0,759.44,110.44)">
                    <rect x="245.65" y="430.14" width="157.7" height="9.6" style="fill:rgb(38,36,93);"/>
                </g>
                <g>
                    <path d="M433.53,272.38L433.53,250.35L215.48,250.35L215.48,306.12L215.48,314.33L433.52,314.33L433.52,272.38L433.53,272.38Z" style="fill:none;fill-rule:nonzero;"/>
                    <path d="M212.34,349.9L439.42,349.9L439.42,321.51L212.35,321.51L212.35,349.9L212.34,349.9Z" style="fill:none;fill-rule:nonzero;"/>
                    <path d="M215.49,306.12L215.49,250.35L433.53,250.35L433.53,314.33L443.31,314.33L443.31,240.58L205.71,240.58L205.71,306.13L205.71,314.33L215.49,314.33L215.49,306.12Z" style="fill:rgb(38,36,93);fill-rule:nonzero;"/>
                    <path d="M433.53,426.71C433.53,436.58 429.34,445.28 420.72,453.34C414.78,458.88 407.45,463.02 399.68,467.41C398.41,468.13 397.14,468.84 395.88,469.57C384.32,476.18 372.77,482.82 361.22,489.45C352.91,494.22 344.59,498.99 336.28,503.76C333.15,505.55 329.99,507.32 326.81,509.1L324.78,510.24L319.38,507.19C313.57,503.91 307.8,500.65 302.05,497.35L287.16,488.82C271.52,479.86 255.34,470.61 239.54,461.38C223.32,451.91 215.45,439.32 215.47,422.88C215.49,404.29 215.48,374.7 215.48,356.11L205.7,356.11C205.7,374.69 205.7,404.28 205.69,422.86C205.67,442.8 215.4,458.6 234.61,469.82C250.44,479.06 266.64,488.33 282.3,497.3L297.19,505.83C302.95,509.14 308.75,512.41 314.57,515.7L324.75,521.46L331.57,517.64C334.79,515.84 337.98,514.06 341.14,512.25C349.46,507.48 357.77,502.71 366.09,497.94C377.64,491.31 389.18,484.68 400.74,478.07C401.99,477.36 403.24,476.65 404.49,475.94C412.42,471.47 420.61,466.84 427.4,460.5C437.96,450.63 443.31,439.27 443.31,426.72L443.31,356.1L433.53,356.1L433.53,426.72L433.53,426.71Z" style="fill:rgb(38,36,93);fill-rule:nonzero;"/>
                </g>
                <g>
                    <path d="M260.36,170.39L260.36,186.3L243.02,186.3L243.02,183.52L230.47,183.52L230.47,195.03L238.92,195.03L238.92,193.64L251.01,193.64L251.01,209.55L238.92,209.55L238.92,208.16L230.47,208.16L230.47,219.66L234.88,219.66L234.88,232.8L207.6,232.8L207.6,219.66L212.02,219.66L212.02,183.52L208.41,183.52L208.41,170.39L260.36,170.39Z" style="fill:rgb(38,36,93);fill-rule:nonzero;"/>
                    <path d="M319.74,179.11L319.74,195.02L313.68,201.59L319.74,208.16L319.74,224.07L307.62,232.79L264.99,232.79L264.99,219.65L268.59,219.65L268.59,183.51L264.99,183.51L264.99,170.38L307.62,170.38L319.73,179.1L319.74,179.11ZM302.4,192.71L302.4,185.33L299.89,183.52L287.04,183.52L287.04,195.03L300.26,195.03L302.39,192.72L302.4,192.71ZM287.05,208.16L287.05,219.66L299.9,219.66L302.41,217.85L302.41,210.47L300.28,208.15L287.06,208.15L287.05,208.16Z" style="fill:rgb(38,36,93);fill-rule:nonzero;"/>
                    <path d="M381.13,170.48L381.13,186.39L365.54,186.39L365.54,183.61L361.97,183.61L361.97,219.75L366.38,219.75L366.38,232.89L339.1,232.89L339.1,219.75L343.51,219.75L343.51,183.61L339.93,183.61L339.93,186.39L324.34,186.39L324.34,170.48L381.13,170.48Z" style="fill:rgb(38,36,93);fill-rule:nonzero;"/>
                    <path d="M408.6,218.82L410,219.83L421.34,219.83L422.67,218.81L422.67,183.69L417.72,183.69L417.72,170.56L445,170.56L445,183.69L440.03,183.69C440.03,197.21 440.05,210.72 440.03,224.24L428.62,232.97L402.28,232.97L390.16,224.24L390.16,183.69L385.75,183.69L385.75,170.56L413.03,170.56L413.03,183.69L408.61,183.69L408.61,218.82L408.6,218.82Z" style="fill:rgb(38,36,93);fill-rule:nonzero;"/>
                </g>
                <g>
                    <path d="M364.41,429.03L381.95,435.24C382.25,435.35 382.42,435.65 382.32,435.91L382.27,436.05C382.09,436.52 381.65,436.87 381.1,436.97L380.23,437.13C380.12,437.15 380.01,437.14 379.9,437.1L364.53,431.66C364.38,431.61 364.25,431.5 364.19,431.37L363.82,430.67C363.59,430.23 363.55,429.75 363.71,429.31C363.8,429.05 364.13,428.92 364.43,429.03L364.41,429.03Z" style="fill:rgb(38,36,93);fill-rule:nonzero;"/>
                    <path d="M364.99,432.35L364.88,432.66C364.69,433.18 364.72,433.76 364.96,434.29L365.59,435.68L376.76,439.64L377.97,439.17C378.54,438.95 378.97,438.54 379.2,438.03L379.44,437.48L364.99,432.36L364.99,432.35Z" style="fill:rgb(38,36,93);fill-rule:nonzero;"/>
                    <path d="M365.96,436.32L361.68,454.99C361.92,455.41 366.8,457.14 367.26,456.96L375.63,439.74L365.96,436.32Z" style="fill:rgb(38,36,93);fill-rule:nonzero;"/>
                    <path d="M365.18,438.09L375.01,441.57C375.23,441.65 375.36,441.88 375.28,442.08L374.88,443.18C374.81,443.38 374.57,443.48 374.34,443.4L364.51,439.92C364.29,439.84 364.16,439.61 364.24,439.41L364.64,438.31C364.71,438.11 364.95,438.01 365.18,438.09Z" style="fill:rgb(38,36,93);fill-rule:nonzero;"/>
                    <g>
                        <path d="M364.04,416.22C363.67,415.56 363.49,414.74 363.4,414.03C362.88,409.62 366.5,406.76 370.41,405.05C375.77,402.71 381.8,400.97 387.24,398.74C391.17,397.14 395.86,395.81 397.87,392.14C398.58,393.41 399,394.89 398.75,396.24C398.37,398.33 396.61,399.88 394.61,400.81C391.42,402.29 387.54,403.57 384.19,404.85C381.58,405.85 378.98,406.86 376.36,407.84C374.33,408.6 372.32,409.18 370.4,410.16C367.73,411.51 364.92,413.45 364.04,416.22Z" style="fill:rgb(38,36,93);fill-rule:nonzero;"/>
                        <path d="M399.57,400.22C399.63,402.04 399.47,403.69 398.48,405.25C397.52,406.75 395.92,407.72 394.21,408.48C388.36,411.07 381.74,412.88 375.88,415.49C371.14,417.6 367.66,420.75 367.23,425.76C367.23,425.85 367.2,425.97 367.08,425.87C366.98,425.79 366.43,424.85 366.34,424.67C363.44,418.96 368.39,413.6 373.61,411.36C377.46,409.71 381.76,408.34 385.71,406.83C387.36,406.2 389.01,405.55 390.65,404.9C393.4,403.82 397.63,402.45 399.37,400.25C399.44,400.17 399.37,400.12 399.55,400.21L399.57,400.22Z" style="fill:rgb(38,36,93);fill-rule:nonzero;"/>
                        <path d="M405.74,405.5C405.81,407.25 405.69,408.9 404.76,410.41C403.75,412.05 401.94,412.99 400.09,413.76C394.69,416.02 388.91,417.71 383.5,419.98C380.67,421.17 377.22,423.05 375.51,425.41C374.85,426.33 374.46,427.3 374.17,428.38C373.9,427.82 373.65,427.21 373.48,426.62C371.97,421.34 374.95,418.5 379.76,416.5C385.38,414.16 391.28,412.24 396.98,410.04C399.95,408.89 403.32,407.61 405.55,405.54C405.62,405.48 405.55,405.41 405.74,405.5Z" style="fill:rgb(38,36,93);fill-rule:nonzero;"/>
                        <path d="M402,415.41C401.73,418.3 400.42,420.61 397.68,422.05C394.76,423.59 391.06,424.52 387.96,425.88C385.32,427.04 382.73,428.65 381.25,430.96C379.38,427.04 382.78,423.23 386.3,421.59C390.43,419.67 395.39,418.51 399.61,416.7C400.53,416.3 401,415.96 401.79,415.44C401.86,415.39 401.82,415.32 401.99,415.42L402,415.41Z" style="fill:rgb(38,36,93);fill-rule:nonzero;"/>
                    </g>
                </g>
                <g>
                    <path d="M268.35,454.7C251.31,454.7 237.44,440.98 237.44,424.11C237.44,407.24 251.3,393.52 268.35,393.52C285.4,393.52 299.26,407.24 299.26,424.11C299.26,440.98 285.4,454.7 268.35,454.7ZM268.35,397.37C253.45,397.37 241.33,409.37 241.33,424.11C241.33,438.85 253.45,450.85 268.35,450.85C283.25,450.85 295.37,438.85 295.37,424.11C295.37,409.37 283.25,397.37 268.35,397.37Z" style="fill:rgb(38,36,93);fill-rule:nonzero;"/>
                    <path d="M254.16,424.11C254.16,410.52 264.47,399.27 277.75,397.59C275.84,397.11 274.01,396.31 272.92,394.64C259.88,398.23 250.27,410.08 250.27,424.11C250.27,438.14 258.94,448.81 271,452.99C272.06,452.85 273.11,452.66 274.15,452.36C275.7,451.91 277.4,451.39 279.05,450.76C265.15,449.68 254.16,438.14 254.16,424.11Z" style="fill:rgb(38,36,93);fill-rule:nonzero;"/>
                    <path d="M263.75,394.52C263.75,394.52 263.71,394.56 263.68,394.57C261.63,396.01 259.08,396.35 256.75,397.13C256.52,397.21 256.3,397.29 256.08,397.37C270.9,397.46 282.94,409.42 282.94,424.11C282.94,438.8 271.52,450.14 257.23,450.82C260.29,451.53 263.34,452.25 266.41,452.88C278.3,448.62 286.82,437.34 286.82,424.11C286.82,409.92 277.01,397.96 263.75,394.52Z" style="fill:rgb(38,36,93);fill-rule:nonzero;"/>
                    <path d="M249.41,446.24C254.29,441.48 260.98,438.54 268.35,438.54C275.72,438.54 282.68,441.6 287.58,446.52C287.84,446.31 288.12,446.1 288.4,445.9C289.29,445.27 289.82,444.68 290.41,443.88C284.8,438.21 276.98,434.69 268.35,434.69C259.72,434.69 251.96,438.19 246.36,443.82C247.48,444.5 248.49,445.33 249.41,446.24Z" style="fill:rgb(38,36,93);fill-rule:nonzero;"/>
                    <path d="M287.24,400.88C282.37,405.6 275.7,408.52 268.36,408.52C261.02,408.52 254.79,405.79 249.97,401.34C249.5,402.38 248.79,403.36 248.16,404.2C248.05,404.35 247.92,404.47 247.8,404.58C253.27,409.42 260.47,412.37 268.37,412.37C276.65,412.37 284.18,409.13 289.73,403.86C288.74,402.98 287.81,402.04 287.25,400.88L287.24,400.88Z" style="fill:rgb(38,36,93);fill-rule:nonzero;"/>
                    <rect x="266.21" y="397.37" width="3.89" height="56.18" style="fill:rgb(38,36,93);"/>
                    <g transform="matrix(-0,1,-1,-0,691.69,155.37)">
                        <rect x="266.23" y="395.15" width="3.85" height="56.76" style="fill:rgb(38,36,93);"/>
                    </g>
                </g>
                <path d="M206.06,321.51L206.06,349.9L443.31,349.9L443.31,321.51L206.06,321.51ZM239.7,332.81C237.7,334.23 235.7,335.65 233.68,337.06C233.48,337.2 233.45,337.31 233.53,337.52C234.3,339.8 235.06,342.08 235.82,344.37C235.84,344.43 235.86,344.5 235.84,344.59C233.73,343.08 231.61,341.57 229.49,340.05C227.37,341.56 225.26,343.07 223.09,344.62C223.14,344.46 223.16,344.36 223.19,344.25C223.95,341.99 224.7,339.72 225.47,337.46C225.53,337.3 225.51,337.2 225.35,337.09C223.34,335.68 221.34,334.26 219.34,332.84C219.27,332.79 219.21,332.74 219.08,332.65L219.37,332.65C221.85,332.65 224.33,332.65 226.81,332.66C226.99,332.66 227.07,332.62 227.12,332.45C227.88,330.13 228.65,327.82 229.41,325.5C229.42,325.45 229.45,325.4 229.48,325.31C229.65,325.83 229.81,326.3 229.96,326.77C230.59,328.67 231.21,330.57 231.83,332.47C231.88,332.62 231.95,332.66 232.11,332.66C234.59,332.66 237.08,332.66 239.55,332.65L239.85,332.65C239.76,332.72 239.71,332.76 239.66,332.8L239.7,332.81ZM272.22,332.81C270.21,334.23 268.22,335.65 266.21,337.06C266.01,337.2 265.98,337.31 266.05,337.52C266.82,339.8 267.58,342.08 268.34,344.37C268.36,344.43 268.37,344.5 268.36,344.59C266.25,343.08 264.13,341.57 262.01,340.05C259.89,341.56 257.78,343.07 255.61,344.62C255.66,344.46 255.68,344.36 255.71,344.25C256.47,341.99 257.22,339.72 257.98,337.46C258.04,337.3 258.02,337.2 257.86,337.09C255.85,335.68 253.85,334.26 251.84,332.84C251.78,332.79 251.71,332.74 251.59,332.65L251.88,332.65C254.36,332.65 256.84,332.65 259.33,332.66C259.51,332.66 259.59,332.62 259.64,332.45C260.4,330.13 261.17,327.82 261.94,325.5C261.95,325.45 261.97,325.4 262.01,325.31C262.18,325.83 262.34,326.3 262.49,326.77C263.11,328.67 263.74,330.57 264.36,332.47C264.41,332.62 264.48,332.66 264.64,332.66C267.12,332.66 269.61,332.66 272.08,332.65L272.38,332.65C272.29,332.72 272.25,332.76 272.2,332.8L272.22,332.81ZM303.26,332.8C301.26,334.22 299.26,335.64 297.25,337.05C297.05,337.19 297.02,337.3 297.09,337.51C297.86,339.78 298.62,342.07 299.38,344.35C299.4,344.41 299.41,344.48 299.4,344.57C297.29,343.06 295.18,341.56 293.06,340.04C290.95,341.55 288.83,343.06 286.67,344.6C286.72,344.44 286.74,344.34 286.77,344.23C287.53,341.97 288.28,339.71 289.04,337.45C289.1,337.29 289.08,337.19 288.92,337.08C286.91,335.67 284.92,334.25 282.91,332.84C282.84,332.79 282.78,332.74 282.66,332.65L282.95,332.65C285.43,332.65 287.9,332.65 290.38,332.66C290.56,332.66 290.64,332.62 290.69,332.45C291.45,330.13 292.22,327.82 292.98,325.5C292.99,325.45 293.01,325.4 293.05,325.31C293.22,325.83 293.38,326.3 293.53,326.77C294.15,328.67 294.78,330.56 295.4,332.46C295.45,332.61 295.52,332.65 295.68,332.65C298.16,332.65 300.64,332.65 303.11,332.64L303.41,332.64C303.32,332.71 303.27,332.75 303.23,332.79L303.26,332.8ZM335.18,332.8C333.18,334.22 331.18,335.64 329.17,337.05C328.97,337.19 328.94,337.3 329.01,337.51C329.78,339.78 330.54,342.07 331.3,344.35C331.32,344.41 331.33,344.48 331.32,344.57C329.21,343.06 327.1,341.56 324.98,340.04C322.86,341.55 320.75,343.06 318.59,344.6C318.64,344.44 318.66,344.34 318.69,344.23C319.45,341.97 320.2,339.71 320.96,337.45C321.02,337.29 321,337.19 320.84,337.08C318.83,335.67 316.84,334.25 314.83,332.84C314.77,332.79 314.7,332.74 314.58,332.65L314.87,332.65C317.35,332.65 319.82,332.65 322.31,332.66C322.49,332.66 322.57,332.62 322.62,332.45C323.38,330.13 324.15,327.82 324.91,325.5C324.92,325.45 324.94,325.4 324.98,325.31C325.15,325.83 325.31,326.3 325.46,326.77C326.08,328.67 326.71,330.56 327.33,332.46C327.37,332.61 327.45,332.65 327.61,332.65C330.09,332.65 332.57,332.65 335.04,332.64L335.34,332.64C335.26,332.71 335.21,332.75 335.16,332.79L335.18,332.8ZM367.1,332.8C365.1,334.22 363.1,335.64 361.09,337.05C360.89,337.19 360.86,337.3 360.93,337.51C361.7,339.78 362.46,342.07 363.22,344.35C363.24,344.41 363.25,344.48 363.24,344.57C361.13,343.06 359.02,341.56 356.89,340.04C354.78,341.55 352.67,343.06 350.5,344.6C350.54,344.44 350.57,344.34 350.6,344.23C351.36,341.97 352.11,339.71 352.87,337.45C352.93,337.29 352.91,337.19 352.75,337.08C350.74,335.67 348.75,334.25 346.74,332.84C346.68,332.79 346.61,332.74 346.49,332.65L346.78,332.65C349.26,332.65 351.73,332.65 354.21,332.66C354.39,332.66 354.47,332.62 354.52,332.45C355.28,330.13 356.05,327.82 356.81,325.5C356.82,325.45 356.84,325.4 356.88,325.31C357.05,325.83 357.2,326.3 357.36,326.77C357.98,328.67 358.61,330.56 359.23,332.46C359.27,332.61 359.35,332.65 359.51,332.65C361.99,332.65 364.47,332.65 366.95,332.64L367.25,332.64C367.17,332.71 367.12,332.75 367.07,332.79L367.1,332.8ZM396.46,332.81C394.49,334.23 392.52,335.65 390.55,337.06C390.36,337.2 390.33,337.31 390.4,337.52C391.16,339.8 391.9,342.08 392.65,344.37C392.67,344.43 392.69,344.5 392.67,344.59C390.59,343.08 388.52,341.57 386.43,340.05C384.35,341.56 382.27,343.07 380.14,344.62C380.19,344.46 380.21,344.36 380.24,344.25C380.98,341.99 381.72,339.72 382.48,337.46C382.53,337.3 382.52,337.2 382.36,337.09C380.39,335.68 378.42,334.26 376.45,332.84C376.38,332.79 376.32,332.74 376.2,332.65L376.49,332.65C378.93,332.65 381.37,332.65 383.81,332.66C383.99,332.66 384.06,332.62 384.12,332.45C384.87,330.13 385.62,327.82 386.37,325.5C386.38,325.45 386.41,325.4 386.44,325.31C386.61,325.83 386.76,326.3 386.92,326.77C387.54,328.67 388.15,330.57 388.76,332.47C388.81,332.62 388.88,332.66 389.04,332.66C391.48,332.66 393.92,332.66 396.36,332.65L396.66,332.65C396.57,332.72 396.52,332.76 396.48,332.8L396.46,332.81ZM428.43,332.81C426.46,334.23 424.5,335.65 422.52,337.06C422.33,337.2 422.29,337.31 422.36,337.52C423.12,339.8 423.87,342.08 424.62,344.37C424.64,344.43 424.65,344.5 424.64,344.59C422.56,343.08 420.49,341.57 418.39,340.05C416.31,341.56 414.23,343.07 412.1,344.62C412.15,344.46 412.17,344.36 412.2,344.25C412.94,341.99 413.69,339.72 414.43,337.46C414.49,337.3 414.47,337.2 414.32,337.09C412.34,335.68 410.38,334.26 408.41,332.84C408.35,332.79 408.28,332.74 408.16,332.65L408.44,332.65C410.88,332.65 413.32,332.65 415.76,332.66C415.94,332.66 416.01,332.62 416.07,332.45C416.82,330.13 417.57,327.82 418.33,325.5C418.34,325.45 418.36,325.4 418.4,325.31C418.57,325.83 418.72,326.3 418.88,326.77C419.49,328.67 420.11,330.57 420.72,332.47C420.77,332.62 420.84,332.66 421,332.66C423.44,332.66 425.88,332.66 428.32,332.65L428.61,332.65C428.52,332.72 428.48,332.76 428.43,332.8L428.43,332.81Z" style="fill:rgb(190,34,39);fill-rule:nonzero;"/>
                <g>
                    <path d="M349.39,258.09C349.53,258.64 349.26,297.23 349.26,297.23C348.11,299.86 332.65,298.91 328.72,298.93C326.88,298.93 323.99,300.08 323.67,297.78C323.51,296.65 323.67,289.71 323.64,288.5C323.45,279.06 324.01,270.09 324.64,260.76C324.92,256.67 340.9,258.99 346.48,257.88C347.23,257.73 349.18,257.35 349.37,258.11L349.39,258.09Z" style="fill:none;fill-rule:nonzero;stroke:rgb(38,36,93);stroke-width:1.59px;"/>
                    <path d="M368.94,295.77C367.4,296.2 365.73,296.18 364.05,296.17C362.69,296.17 361.53,296.86 361.35,297.78L360.15,303.84C360,304.6 359.19,305.22 358.12,305.4C356.63,305.65 354.72,305.92 354.47,305.92L330.36,305.97C330.09,305.97 329.88,305.81 329.91,305.62L329.99,305.08C330.04,304.77 330.4,304.54 330.85,304.53C334.33,304.45 337.81,304.36 341.3,304.29C345.01,304.21 348.72,304.13 352.43,304.05C352.86,304.05 353.29,303.96 353.67,303.82L356.34,302.79C357.07,302.51 357.53,301.98 357.54,301.4L357.87,258.49C357.87,258.49 357.9,258.43 357.94,258.43C361.64,257.89 360.81,262.33 361.1,265.08C361.2,266.04 362.38,266.79 363.78,266.79C366.12,266.79 369.16,266.87 369.65,268.04C370.46,269.97 366.83,270.01 364.17,270.19C362.75,270.29 361.69,271.12 361.75,272.1C362.08,277.27 359.03,290.55 362.53,292.46C364.12,293.29 366.55,292.66 368.39,292.85C370.06,293.02 370.92,294.38 369.87,295.29C369.63,295.49 369.33,295.66 368.96,295.76L368.94,295.77Z" style="fill:none;fill-rule:nonzero;stroke:rgb(38,36,93);stroke-width:1.59px;"/>
                    <path d="M277.49,267.39C278.88,267.07 280.45,267.2 282.01,267.09C283.71,266.97 285.08,266.07 285.37,264.91C285.52,264.31 285.7,263.64 285.92,262.92C286.97,259.46 287.39,259.07 287.95,259.01C288.23,258.98 288.78,259.2 289.06,259.39C289.26,259.54 289.37,259.76 289.34,259.96C288.99,261.95 288.61,264.17 288.48,266.11C287.84,275.13 287.87,286.45 288.48,295.48C288.55,296.45 288.98,300.07 289.49,302.11C289.68,302.87 290.44,303.46 291.4,303.86C292.4,304.27 294.45,304.08 294.62,304.08L317.62,304.08C318.05,304.08 318.48,304.2 318.73,304.44C318.76,304.46 318.78,304.49 318.8,304.52C318.88,304.62 319.13,304.94 318.95,305.24C318.81,305.48 318.2,305.99 315.77,306.1C307.39,306.47 297.52,306.7 289.49,305.97C284.73,305.54 285.78,301.53 285.85,298.66C285.87,297.8 284.93,297.08 283.7,296.99L279.32,296.65C278.57,296.59 277.91,296.3 277.52,295.86C276.64,294.86 277.49,293.55 279.16,293.35C281.11,293.12 283.3,293.58 284.91,292.72C285.44,292.43 285.71,291.97 285.72,291.5L286.23,273C286.23,272.91 286.22,272.82 286.19,272.74C284.71,268.84 279.52,272.65 276.03,269.89C275.79,269.7 275.67,269.45 275.67,269.2C275.67,268.39 276.4,267.64 277.52,267.38L277.49,267.39Z" style="fill:none;fill-rule:nonzero;stroke:rgb(38,36,93);stroke-width:1.59px;"/>
                    <path d="M297.73,258.03C299.67,257.59 302.27,258.79 304.39,258.91C308.81,259.17 319.85,257.41 321.34,260.75C322.91,273.33 320.38,286.04 322.05,298.73C322.05,298.73 322.36,299.48 320.99,299.65C320.41,299.67 302.88,300.79 296.73,297.23L296.58,259.16C296.61,258.61 296.93,258.21 297.73,258.03Z" style="fill:none;fill-rule:nonzero;stroke:rgb(38,36,93);stroke-width:1.59px;"/>
                    <path d="M351.21,258.44C354.82,258.63 355.7,260.15 355.88,262.02C356.48,268.56 355.74,279.76 355.45,286.6C355.27,290.86 355.64,295.16 355.47,299.42C354.49,300.18 351.41,296.79 351.41,296.4L351.21,258.45L351.21,258.44Z" style="fill:none;fill-rule:nonzero;stroke:rgb(38,36,93);stroke-width:1.59px;"/>
                    <path d="M292.64,259.84C293.5,259.49 294.58,259.92 294.58,260.6L294.58,298.72C294.58,299.12 293.59,300.03 292.48,300.54C291.64,300.93 290.51,300.51 290.49,299.82C289.94,278.89 289.91,263.57 290.52,261.95C290.94,260.83 291.95,260.2 291.95,260.2C292.17,260.06 292.41,259.94 292.64,259.85L292.64,259.84Z" style="fill:none;fill-rule:nonzero;stroke:rgb(38,36,93);stroke-width:1.59px;"/>
                    <path d="M327.29,302.3C326.94,301.89 327.09,301.37 327.66,301.1L328.72,300.58C328.95,300.47 329.21,300.41 329.49,300.41C334.21,300.43 339.23,300.68 343.91,300.41C346.29,300.27 349.6,299.24 351.38,299.22C353.85,299.18 355.35,302.75 353.39,302.75L328.42,302.75C327.96,302.75 327.53,302.58 327.29,302.31L327.29,302.3Z" style="fill:none;fill-rule:nonzero;stroke:rgb(38,36,93);stroke-width:1.59px;"/>
                    <path d="M320.26,301.3C320.98,301.46 320.18,302.95 319.23,303.08C312,301.78 302.68,303.55 295.61,302.66C292.42,302.26 294.25,299.27 296.96,299.44C298,299.5 298.68,300.24 299.7,300.32C303.36,300.61 314.59,300.05 320.27,301.3L320.26,301.3Z" style="fill:none;fill-rule:nonzero;stroke:rgb(38,36,93);stroke-width:1.59px;"/>
                    <path d="M321.93,301.73C322.15,301.65 322.36,301.62 322.68,301.59C323.78,301.47 324.86,301.66 325.38,301.84C327.35,302.56 326.79,305.37 325.16,305.68C324.04,305.89 322.26,304.94 321.59,304.02C321.05,303.28 320.92,302.12 321.93,301.73Z" style="fill:none;fill-rule:nonzero;stroke:rgb(38,36,93);stroke-width:1.59px;"/>
                </g>
                <g>
                    <path d="M306.05,285.9L299.43,285.9C299.28,285.9 299.2,285.82 299.2,285.67L299.2,285.25C299.2,285.11 299.31,284.97 299.52,284.8C299.71,284.65 299.8,284.42 299.8,284.1L299.8,272.65C299.8,272.32 299.68,272.06 299.44,271.9C299.28,271.79 299.2,271.66 299.2,271.51L299.2,271.05C299.2,270.93 299.28,270.87 299.43,270.87L304.4,270.87C304.49,270.87 304.66,270.87 304.91,270.84C305.14,270.82 305.28,270.81 305.33,270.81C305.54,270.81 305.65,270.87 305.65,270.98L305.65,273.82C305.65,273.97 305.64,274.06 305.61,274.09C305.58,274.12 305.5,274.13 305.36,274.13L305,274.13C304.84,274.13 304.76,274.04 304.74,273.86C304.67,273.36 304.54,272.93 304.36,272.57C304.18,272.21 303.81,272.03 303.25,272.03L302.03,272.03L302.03,277.5L302.48,277.5C302.76,277.5 302.95,277.45 303.05,277.34C303.15,277.23 303.28,276.9 303.44,276.34C303.49,276.16 303.53,276.06 303.55,276.04C303.57,276.02 303.63,276.01 303.72,276.01L304.15,276.01C304.32,276.01 304.4,276.09 304.4,276.25L304.4,279.9C304.4,280.05 304.32,280.13 304.17,280.13L303.73,280.13C303.63,280.13 303.57,280.11 303.53,280.06C303.49,280.01 303.44,279.86 303.38,279.61C303.26,279.15 303.14,278.87 303,278.77C302.87,278.67 302.68,278.62 302.44,278.62L302.05,278.62L302.05,284.74L303.36,284.74C303.84,284.74 304.18,284.63 304.36,284.4C304.55,284.17 304.78,283.54 305.06,282.52C305.12,282.29 305.24,282.17 305.41,282.17L305.83,282.17C305.99,282.17 306.07,282.25 306.07,282.41L306.07,285.89L306.05,285.9Z" style="fill:rgb(38,36,93);fill-rule:nonzero;"/>
                    <path d="M307.47,277.81C307.63,277.45 307.84,277.13 308.1,276.87C308.36,276.61 308.68,276.4 309.04,276.24C309.4,276.08 309.79,276 310.2,276C310.61,276 310.99,276.08 311.36,276.24C311.72,276.4 312.04,276.61 312.3,276.87C312.56,277.13 312.78,277.45 312.93,277.81C313.09,278.17 313.17,278.56 313.17,278.97C313.17,279.38 313.09,279.76 312.93,280.13C312.77,280.5 312.56,280.81 312.3,281.07C312.04,281.33 311.72,281.54 311.36,281.7C311,281.86 310.61,281.94 310.2,281.94C309.79,281.94 309.41,281.86 309.04,281.7C308.68,281.54 308.36,281.33 308.1,281.07C307.84,280.81 307.62,280.49 307.47,280.13C307.32,279.77 307.23,279.38 307.23,278.97C307.23,278.56 307.31,278.17 307.47,277.81Z" style="fill:rgb(38,36,93);fill-rule:nonzero;"/>
                    <path d="M317.33,284.1C317.33,284.43 317.45,284.69 317.7,284.85C317.87,284.96 317.95,285.09 317.95,285.24L317.95,285.67C317.95,285.82 317.87,285.89 317.7,285.89L314.68,285.89C314.54,285.89 314.47,285.82 314.47,285.69L314.47,285.24C314.47,285.1 314.55,284.97 314.72,284.85C314.97,284.68 315.09,284.42 315.09,284.1L315.09,272.65C315.09,272.32 314.97,272.07 314.72,271.9C314.55,271.79 314.47,271.66 314.47,271.5L314.47,271.08C314.47,270.93 314.55,270.86 314.72,270.86L317.74,270.86C317.88,270.86 317.95,270.93 317.95,271.06L317.95,271.5C317.95,271.65 317.87,271.78 317.7,271.9C317.46,272.07 317.33,272.32 317.33,272.65L317.33,284.1Z" style="fill:rgb(38,36,93);fill-rule:nonzero;"/>
                </g>
                <g>
                    <path d="M330.33,284.1C330.33,284.43 330.45,284.69 330.7,284.85C330.87,284.96 330.95,285.09 330.95,285.24L330.95,285.67C330.95,285.82 330.87,285.89 330.7,285.89L327.68,285.89C327.54,285.89 327.47,285.82 327.47,285.69L327.47,285.24C327.47,285.1 327.55,284.97 327.72,284.85C327.97,284.68 328.09,284.42 328.09,284.1L328.09,272.65C328.09,272.32 327.97,272.07 327.72,271.9C327.55,271.79 327.47,271.66 327.47,271.5L327.47,271.08C327.47,270.93 327.55,270.86 327.72,270.86L330.74,270.86C330.88,270.86 330.95,270.93 330.95,271.06L330.95,271.5C330.95,271.65 330.87,271.78 330.7,271.9C330.46,272.07 330.33,272.32 330.33,272.65L330.33,284.1Z" style="fill:rgb(38,36,93);fill-rule:nonzero;"/>
                    <path d="M332.5,277.81C332.66,277.45 332.87,277.13 333.13,276.87C333.39,276.61 333.71,276.4 334.07,276.24C334.43,276.08 334.82,276 335.23,276C335.64,276 336.02,276.08 336.39,276.24C336.75,276.4 337.07,276.61 337.33,276.87C337.59,277.13 337.81,277.45 337.96,277.81C338.12,278.17 338.2,278.56 338.2,278.97C338.2,279.38 338.12,279.76 337.96,280.13C337.8,280.5 337.59,280.81 337.33,281.07C337.07,281.33 336.75,281.54 336.39,281.7C336.03,281.86 335.64,281.94 335.23,281.94C334.82,281.94 334.44,281.86 334.07,281.7C333.71,281.54 333.39,281.33 333.13,281.07C332.87,280.81 332.65,280.49 332.5,280.13C332.35,279.77 332.26,279.38 332.26,278.97C332.26,278.56 332.34,278.17 332.5,277.81Z" style="fill:rgb(38,36,93);fill-rule:nonzero;"/>
                    <path d="M344.08,279.62L346.52,279.62C346.68,279.62 346.78,279.64 346.82,279.67C346.86,279.71 346.88,279.78 346.88,279.9C346.88,279.95 346.88,280.06 346.85,280.24C346.82,280.66 346.8,281.01 346.8,281.28L346.8,283.99C346.8,284.17 346.85,284.31 346.95,284.4C347.03,284.47 347.07,284.55 347.07,284.66L347.07,285.01C347.07,285.15 346.99,285.27 346.83,285.38C346.67,285.49 346.34,285.64 345.83,285.82C345.33,286 344.77,286.09 344.15,286.09C341.23,286.09 339.77,283.71 339.77,278.95C339.77,277.59 339.91,276.29 340.2,275.05C340.48,273.81 340.97,272.77 341.66,271.92C342.35,271.08 343.09,270.65 343.88,270.65C344.27,270.65 344.7,270.76 345.17,270.98C345.31,271.04 345.41,271.08 345.49,271.08C345.53,271.08 345.6,271.05 345.71,271C345.79,270.96 345.86,270.94 345.92,270.94L346.3,270.94C346.48,270.94 346.57,271.03 346.57,271.2L346.57,274.39C346.57,274.58 346.49,274.67 346.33,274.67L345.92,274.67C345.79,274.67 345.71,274.66 345.69,274.63C345.67,274.6 345.61,274.4 345.53,274.02C345.21,272.52 344.64,271.77 343.84,271.77C343.45,271.77 343.13,271.95 342.88,272.3C342.63,272.65 342.45,273.47 342.34,274.76C342.23,276.05 342.18,277.32 342.18,278.6C342.18,279.94 342.23,281.04 342.33,281.91C342.43,282.78 342.56,283.43 342.7,283.87C342.84,284.31 343.01,284.61 343.21,284.77C343.41,284.93 343.64,285.01 343.9,285.01C344.47,285.01 344.75,284.6 344.75,283.79L344.75,281.7C344.75,281.34 344.7,281.08 344.61,280.92C344.52,280.76 344.33,280.62 344.04,280.5C343.9,280.44 343.83,280.35 343.83,280.24L343.83,279.83C343.83,279.68 343.91,279.61 344.07,279.61L344.08,279.62Z" style="fill:rgb(38,36,93);fill-rule:nonzero;"/>
                </g>
            </g>
        </g>
    </g>
</svg>
